<svg width="20" height="20" viewBox="0 0 20 20" fill="none" xmlns="http://www.w3.org/2000/svg">
<path d="M10.2695 19.9492C15.5332 19.9492 19.8789 15.6035 19.8789 10.3301C19.8789 5.06641 15.5234 0.720703 10.2597 0.720703C4.99606 0.720703 0.65036 5.06641 0.65036 10.3301C0.65036 15.6035 4.99606 19.9492 10.2695 19.9492ZM9.23434 14.9199C8.86325 14.9199 8.57028 14.7539 8.29684 14.4121L6.06052 11.7168C5.88474 11.4922 5.79684 11.2676 5.79684 11.0234C5.79684 10.5156 6.19724 10.1152 6.70505 10.1152C7.00778 10.1152 7.24216 10.2227 7.47653 10.5254L9.20505 12.6934L12.955 6.70703C13.1699 6.36523 13.4433 6.18945 13.7558 6.18945C14.2441 6.18945 14.6933 6.54102 14.6933 7.04883C14.6933 7.27344 14.5957 7.50781 14.4492 7.72266L10.1328 14.4023C9.91794 14.7344 9.59567 14.9199 9.23434 14.9199Z" fill="#07B284"/>
</svg>
