<svg width="18" height="20" viewBox="0 0 18 20" fill="none" xmlns="http://www.w3.org/2000/svg">
<path d="M5.287 19.1719H12.9335C14.2518 19.1719 15.0956 18.3896 15.1571 17.0625L15.7196 5.14453H16.5897C17.0468 5.14453 17.3895 4.80176 17.3895 4.35352C17.3895 3.90527 17.0468 3.5625 16.5897 3.5625H12.9423V2.33203C12.9423 1.02246 12.1161 0.257812 10.6835 0.257812H7.51942C6.08681 0.257812 5.25185 1.02246 5.25185 2.33203V3.5625H1.62196C1.17372 3.5625 0.822159 3.90527 0.822159 4.35352C0.822159 4.80176 1.17372 5.14453 1.62196 5.14453H2.50087L3.05458 17.0713C3.1161 18.3984 3.95107 19.1719 5.287 19.1719ZM6.91298 2.40234C6.91298 1.99805 7.19423 1.73438 7.63368 1.73438H10.5604C11.0087 1.73438 11.2899 1.99805 11.2899 2.40234V3.5625H6.91298V2.40234ZM5.48036 17.5723C5.02333 17.5723 4.70692 17.2471 4.68056 16.7549L4.13564 5.14453H14.0585L13.5311 16.7549C13.5048 17.2471 13.1972 17.5723 12.7313 17.5723H5.48036ZM6.6581 16.2715C7.03603 16.2715 7.27333 16.0342 7.26454 15.6914L7.00966 7.07812C7.00087 6.72656 6.75478 6.50684 6.40321 6.50684C6.03407 6.50684 5.79677 6.73535 5.81435 7.08691L6.06044 15.7002C6.06923 16.043 6.31532 16.2715 6.6581 16.2715ZM9.11024 16.2715C9.4706 16.2715 9.71669 16.043 9.71669 15.7002V7.07812C9.71669 6.73535 9.4706 6.50684 9.11024 6.50684C8.74989 6.50684 8.49501 6.73535 8.49501 7.07812V15.7002C8.49501 16.043 8.74989 16.2715 9.11024 16.2715ZM11.5536 16.2715C11.8964 16.2715 12.1425 16.043 12.1513 15.7002L12.3974 7.08691C12.4149 6.73535 12.1776 6.50684 11.8085 6.50684C11.4569 6.50684 11.2108 6.73535 11.202 7.07812L10.9559 15.6914C10.9384 16.0342 11.1757 16.2715 11.5536 16.2715Z" fill="#FF3333"/>
</svg>
