<svg width="30" height="19" viewBox="0 0 30 19" fill="none" xmlns="http://www.w3.org/2000/svg">
<path d="M20.5247 9.67734C23.092 9.67734 25.1438 7.67377 25.1438 5.17418C25.1438 2.73295 23.0706 0.739112 20.5247 0.739112C17.9895 0.739112 15.9055 2.74268 15.9163 5.17418C15.927 7.6835 17.9573 9.67734 20.5247 9.67734ZM8.54712 9.88158C10.7922 9.88158 12.5862 8.12117 12.5862 5.90364C12.5862 3.77363 10.76 2.0035 8.54712 2.0035C6.32349 2.0035 4.48657 3.79309 4.49731 5.91336C4.50806 8.1309 6.302 9.88158 8.54712 9.88158ZM20.5247 7.48898C19.3538 7.48898 18.3655 6.49692 18.3655 5.16446C18.3547 3.91953 19.3645 2.92747 20.5247 2.92747C21.6956 2.92747 22.6838 3.91953 22.6838 5.17418C22.6838 6.4872 21.717 7.48898 20.5247 7.48898ZM8.54712 7.73213C7.63403 7.73213 6.87134 6.95405 6.87134 5.91336C6.8606 4.95048 7.65552 4.16268 8.54712 4.16268C9.43872 4.16268 10.2122 4.95048 10.2122 5.90364C10.2122 6.95405 9.46021 7.73213 8.54712 7.73213ZM14.3264 18.3919H26.7229C28.6565 18.3919 29.6233 17.7791 29.6233 16.4953C29.6233 13.6456 25.7883 10.5916 20.5247 10.5916C15.261 10.5916 11.426 13.6456 11.426 16.4953C11.426 17.7791 12.3928 18.3919 14.3264 18.3919ZM3.11157 18.4016H10.7922C10.051 17.9834 9.67505 17.001 9.75024 16.2424H3.44458C3.28345 16.2424 3.24048 16.1646 3.24048 16.0673C3.24048 14.4334 5.58228 12.741 8.53638 12.741C9.28833 12.741 10.4163 12.9453 11.0071 13.1787C11.3831 12.5076 11.9524 11.9532 12.7795 11.5058C11.5657 10.9514 9.86841 10.6013 8.53638 10.6013C4.13208 10.6013 0.587158 13.3343 0.587158 16.3786C0.587158 17.6819 1.42505 18.4016 3.11157 18.4016ZM14.4553 16.2035C14.2834 16.2035 14.2297 16.1257 14.2297 16.0187C14.2297 14.9002 16.5608 12.7897 20.5247 12.7897C24.4993 12.7897 26.8196 14.9002 26.8196 16.0187C26.8196 16.1257 26.7659 16.2035 26.594 16.2035H14.4553Z" fill="#BBBADE"/>
</svg>
