<svg width="18" height="18" viewBox="0 0 18 18" fill="none" xmlns="http://www.w3.org/2000/svg">
<path d="M1.57483 10.1808H7.61194V16.218C7.61194 16.9162 8.18127 17.4963 8.89026 17.4963C9.5885 17.4963 10.1578 16.9162 10.1578 16.218V10.1808H16.1949C16.8824 10.1808 17.4625 9.61151 17.4625 8.91327C17.4625 8.21503 16.8824 7.64569 16.1949 7.64569H10.1578V1.60858C10.1578 0.921082 9.5885 0.341003 8.89026 0.341003C8.18127 0.341003 7.61194 0.921082 7.61194 1.60858V7.64569H1.57483C0.887329 7.64569 0.307251 8.21503 0.307251 8.91327C0.307251 9.61151 0.887329 10.1808 1.57483 10.1808Z" fill="#80868B"/>
</svg>
