<svg width="24" height="22" viewBox="0 0 24 22" fill="none" xmlns="http://www.w3.org/2000/svg">
<path d="M11.0686 21.8508H13.1526C14.1731 21.8508 14.9895 21.2672 15.2151 20.3919L15.5588 19.0497L15.6663 19.0108L16.9661 19.7305C17.8254 20.2071 18.8567 20.0806 19.5657 19.429L21.0051 18.1257C21.7249 17.4449 21.8538 16.5306 21.3274 15.772L20.5325 14.6146L20.5647 14.5173L22.0364 14.2061C22.9924 13.9824 23.637 13.2432 23.637 12.329V10.5394C23.637 9.62515 23.0032 8.87624 22.0364 8.66227L20.5754 8.34131L20.5325 8.24405L21.3381 7.08665C21.8645 6.32802 21.7356 5.41377 21.0051 4.72323L19.5657 3.42966C18.8674 2.77802 17.8254 2.64185 16.9768 3.11843L15.677 3.83816L15.5588 3.79925L15.2151 2.45706C14.9895 1.58172 14.1731 0.998154 13.1526 0.998154H11.0686C10.0481 0.998154 9.23169 1.59144 9.0061 2.45706L8.66235 3.79925L8.54419 3.83816L7.24438 3.11843C6.39575 2.65158 5.35376 2.77802 4.65552 3.42966L3.21606 4.72323C2.4856 5.41377 2.35669 6.32802 2.88306 7.08665L3.68872 8.24405L3.64575 8.34131L2.18481 8.66227C1.21802 8.88597 0.584229 9.62515 0.584229 10.5394V12.329C0.584229 13.2432 1.22876 13.9921 2.18481 14.2061L3.65649 14.5173L3.68872 14.6146L2.8938 15.772C2.35669 16.5306 2.4856 17.4449 3.21606 18.1257L4.65552 19.429C5.3645 20.0806 6.39575 20.2071 7.25513 19.7305L8.55493 19.0108L8.66235 19.0497L9.0061 20.3919C9.23169 21.2672 10.0481 21.8508 11.0686 21.8508ZM11.595 19.4873C11.4231 19.4873 11.3479 19.4095 11.3264 19.2831L10.7463 17.0753C10.0266 16.9586 9.29614 16.6765 8.63013 16.2778L6.49243 17.4741C6.36353 17.5519 6.24536 17.5421 6.13794 17.4449L5.40747 16.7835C5.28931 16.6862 5.30005 16.5793 5.37524 16.4723L6.70728 14.5173C6.28833 13.9241 5.99829 13.2821 5.85864 12.6402L3.40942 12.1247C3.26978 12.1053 3.18384 12.0372 3.18384 11.8816V10.9868C3.18384 10.8214 3.26978 10.7631 3.40942 10.7339L5.85864 10.2184C6.00903 9.56679 6.28833 8.91515 6.69653 8.33158L5.3645 6.38638C5.28931 6.27939 5.27856 6.1724 5.39673 6.06542L6.1272 5.41377C6.24536 5.31651 6.35278 5.30679 6.49243 5.3846L8.63013 6.57117C9.15649 6.23076 9.98364 5.91953 10.7356 5.77364L11.3264 3.56583C11.3479 3.43939 11.4231 3.36158 11.595 3.36158H12.6262C12.7981 3.36158 12.8733 3.42966 12.8948 3.56583L13.4856 5.78336C14.2375 5.91953 14.9573 6.20158 15.5911 6.57117L17.718 5.39432C17.8469 5.32624 17.9543 5.32624 18.0725 5.43323L18.803 6.08487C18.9211 6.19186 18.9104 6.29884 18.8352 6.40583L17.5247 8.33158C17.9221 8.90542 18.2122 9.56679 18.3518 10.2087L20.8118 10.7339C20.9514 10.7631 21.0374 10.8214 21.0374 10.9868V11.8816C21.0374 12.0372 20.9514 12.1053 20.8118 12.1247L18.3518 12.6499C18.2229 13.2821 17.9221 13.9435 17.5139 14.5173L18.8352 16.4528C18.8997 16.5598 18.9211 16.6668 18.803 16.7738L18.0725 17.4254C17.9436 17.5324 17.8362 17.5324 17.718 17.4546L15.6018 16.2778C14.9036 16.6765 14.2805 16.9294 13.4856 17.0753L12.8948 19.2831C12.8733 19.4193 12.7981 19.4873 12.6262 19.4873H11.595ZM12.1106 14.8772C14.1946 14.8772 15.9133 13.321 15.9133 11.4245C15.9133 9.53761 14.1946 8.0009 12.1106 8.0009C10.0159 8.0009 8.29712 9.53761 8.29712 11.4245C8.29712 13.3308 10.0159 14.8772 12.1106 14.8772ZM12.1106 12.8445C11.2512 12.8445 10.553 12.2025 10.553 11.4245C10.553 10.6561 11.262 10.0239 12.1106 10.0239C12.9485 10.0239 13.6467 10.6658 13.6467 11.4245C13.6467 12.2025 12.9485 12.8445 12.1106 12.8445Z" fill="#BBBADE"/>
</svg>
