<svg width="26" height="21" viewBox="0 0 26 21" fill="none" xmlns="http://www.w3.org/2000/svg">
<path d="M0.273682 10.0257C0.273682 10.6579 0.778564 11.1345 1.58423 11.1345C1.93872 11.1345 2.30396 10.9788 2.60474 10.7454L3.51782 10.0451V18.2928C3.51782 19.7615 4.52759 20.6563 6.21411 20.6563H19.9641C21.6614 20.6563 22.6604 19.7615 22.6604 18.2928V10.0062L23.6272 10.7454C23.928 10.9788 24.2825 11.1345 24.6477 11.1345C25.3997 11.1345 25.9475 10.7065 25.9475 10.0451C25.9475 9.67556 25.7649 9.33515 25.4319 9.092L22.6604 6.98145V2.89651C22.6604 2.46857 22.3596 2.19624 21.887 2.19624H20.0608C19.5881 2.19624 19.2766 2.46857 19.2766 2.89651V4.40405L14.8723 1.04856C13.8088 0.241304 12.4338 0.241304 11.3704 1.04856L0.789307 9.092C0.456299 9.3546 0.273682 9.69501 0.273682 10.0257ZM16.0217 12.4961C16.0217 12.0584 15.7102 11.7764 15.2268 11.7764H11.0159C10.5325 11.7764 10.2102 12.0584 10.2102 12.4961V18.3317H7.03052C6.42896 18.3317 6.08521 18.0205 6.08521 17.4661V8.09994L12.5627 3.17857C12.9172 2.90624 13.3147 2.90624 13.6799 3.17857L20.093 8.06104V17.4661C20.093 18.0205 19.76 18.3317 19.1477 18.3317H16.0217V12.4961Z" fill="#17CB9A"/>
</svg>
