<svg width="27" height="21" viewBox="0 0 27 21" fill="none" xmlns="http://www.w3.org/2000/svg">
<path d="M24.551 15.2097C26.6672 13.3034 26.6672 10.6968 24.5618 8.79049L16.9885 1.93363C14.8723 0.0176053 12.0256 0.0176053 9.89868 1.93363C7.78247 3.83994 7.78247 6.45624 9.88794 8.36254L17.4612 15.2194C19.5774 17.1354 22.4133 17.1257 24.551 15.2097ZM11.8645 6.76747C10.7903 5.79487 10.7581 4.55966 11.7786 3.63569C12.7883 2.71172 14.1526 2.75062 15.2268 3.72322L17.9553 6.19364L14.593 9.23789L11.8645 6.76747ZM22.6711 13.5076C21.6614 14.4316 20.2971 14.4024 19.2229 13.4298L16.4729 10.9399L19.8352 7.89569L22.5852 10.3758C23.6594 11.3582 23.6917 12.5836 22.6711 13.5076ZM6.12817 20.8216C9.46899 20.8216 12.176 18.3609 12.176 15.3361C12.176 12.3308 9.45825 9.87981 6.12817 9.87981C2.78735 9.87981 0.0803223 12.3308 0.0803223 15.3361C0.0803223 18.3609 2.77661 20.8216 6.12817 20.8216ZM6.12817 12.2141C7.59985 12.2141 8.85669 13.0408 9.36157 14.2079H2.88403C3.38892 13.0408 4.65649 12.2141 6.12817 12.2141ZM6.12817 18.4776C4.64575 18.4776 3.38892 17.6509 2.88403 16.4741H9.36157C8.85669 17.6509 7.59985 18.4776 6.12817 18.4776Z" fill="#BBBADE"/>
</svg>
