<svg width="19" height="17" viewBox="0 0 19 17" fill="none" xmlns="http://www.w3.org/2000/svg">
<path d="M9.93341 16.1816C10.408 16.1816 10.7772 15.997 11.2342 15.5751L17.826 9.39642C18.16 9.08881 18.2918 8.70209 18.2918 8.38568C18.2918 8.0517 18.16 7.69135 17.8348 7.37494L11.2342 1.24017C10.7332 0.774353 10.408 0.589783 9.9422 0.589783C9.24786 0.589783 8.7381 1.14349 8.7381 1.82025V4.71185H8.55353C2.92853 4.71185 0.239075 8.32416 0.239075 14.3095C0.239075 15.5048 0.696106 16.1288 1.3465 16.1288C1.82111 16.1288 2.24298 15.9619 2.58575 15.329C3.81622 13.0263 5.59161 12.0947 8.55353 12.0947H8.7381V14.9863C8.7381 15.6718 9.24786 16.1816 9.93341 16.1816ZM10.4783 13.8788C10.408 13.8788 10.3553 13.8173 10.3553 13.7382V10.7324C10.3553 10.539 10.2674 10.4599 10.0828 10.4599H9.04572C5.29279 10.4599 2.91095 11.5937 1.90021 13.6591C1.87384 13.7119 1.85626 13.747 1.82111 13.747C1.78595 13.747 1.76837 13.7119 1.76837 13.6591C1.88263 9.66888 3.84259 6.32904 9.04572 6.32904H10.0828C10.2674 6.32904 10.3553 6.24115 10.3553 6.05658V2.9892C10.3553 2.9101 10.408 2.85736 10.4871 2.85736C10.5311 2.85736 10.5838 2.88373 10.619 2.91888L16.1912 8.22748C16.2615 8.29779 16.2791 8.34174 16.2791 8.38568C16.2791 8.43842 16.2615 8.48236 16.1912 8.54388L10.619 13.8085C10.575 13.8525 10.5311 13.8788 10.4783 13.8788Z" fill="#80868B"/>
</svg>
