<svg width="17" height="17" viewBox="0 0 17 17" fill="none" xmlns="http://www.w3.org/2000/svg">
<path d="M7.30261 13.424C8.60339 13.424 9.81628 13.0461 10.8446 12.3957L14.3602 15.9113C14.6151 16.175 14.9579 16.298 15.3182 16.298C16.0829 16.298 16.6454 15.7092 16.6454 14.9533C16.6454 14.6105 16.5223 14.2678 16.2675 14.0041L12.7782 10.5148C13.4989 9.46014 13.912 8.18573 13.912 6.81464C13.912 3.18475 10.9413 0.205261 7.30261 0.205261C3.68152 0.205261 0.702026 3.17596 0.702026 6.81464C0.702026 10.4533 3.67273 13.424 7.30261 13.424ZM7.30261 11.5168C4.72742 11.5168 2.60925 9.39862 2.60925 6.81464C2.60925 4.23065 4.72742 2.11249 7.30261 2.11249C9.8866 2.11249 12.0048 4.23065 12.0048 6.81464C12.0048 9.39862 9.8866 11.5168 7.30261 11.5168Z" fill="#80868B"/>
</svg>
