<svg width="125" height="58" viewBox="0 0 125 58" fill="none" xmlns="http://www.w3.org/2000/svg">
<path fill-rule="evenodd" clip-rule="evenodd" d="M58.661 34.3975H56.5222V54.3704C56.5222 55.3769 56.8053 56.158 57.3714 56.7137C57.9376 57.2694 58.7135 57.5472 59.699 57.5472C60.1184 57.5472 60.6164 57.4948 61.193 57.3899C61.7697 57.2851 62.2572 57.1488 62.6556 56.981L62.2782 55.2511C62.0056 55.3559 61.712 55.4398 61.3975 55.5027C61.083 55.5656 60.8104 55.5971 60.5797 55.5971C59.9716 55.5971 59.4998 55.4241 59.1643 55.0781C58.8288 54.7321 58.661 54.2551 58.661 53.647V34.3975ZM0.5979 35.0266H10.0339C10.9985 35.0266 11.8844 35.231 12.6918 35.6399C13.4991 36.0488 14.1963 36.5835 14.7834 37.244C15.3705 37.9046 15.8266 38.6542 16.1516 39.4929C16.4767 40.3317 16.6392 41.1809 16.6392 42.0407C16.6392 42.8585 16.5186 43.6396 16.2774 44.384C16.0363 45.1284 15.7008 45.7994 15.2709 46.397C14.8411 46.9946 14.3221 47.4978 13.714 47.9067C13.1059 48.3156 12.4244 48.5935 11.6695 48.7403L17.1424 57.3585H14.6576L9.40487 49.1177H0.5979V47.1675H10.0968C10.7468 47.1675 11.3392 47.026 11.8739 46.7429C12.4086 46.4598 12.8647 46.0771 13.2421 45.5948C13.6196 45.1125 13.9131 44.5673 14.1228 43.9592C14.3325 43.3511 14.4374 42.7116 14.4374 42.0406C14.4374 41.3696 14.3168 40.7248 14.0757 40.1062C13.8345 39.4876 13.5095 38.9477 13.1006 38.4863C12.6917 38.025 12.2094 37.6581 11.6537 37.3855C11.0981 37.1129 10.5162 36.9766 9.90807 36.9766H0.5979V35.0266ZM27.7738 57.6729C26.5785 57.6729 25.4829 57.4475 24.4869 56.9967C23.4908 56.5459 22.6259 55.9273 21.892 55.1409C21.1581 54.3546 20.5867 53.4477 20.1778 52.4202C19.7689 51.3927 19.5644 50.2919 19.5644 49.1176C19.5644 47.9643 19.7689 46.8792 20.1778 45.8622C20.5867 44.8452 21.1528 43.954 21.8762 43.1886C22.5997 42.4233 23.4646 41.8152 24.4712 41.3643C25.4777 40.9135 26.568 40.6881 27.7423 40.6881C28.9375 40.6881 30.0332 40.9135 31.0292 41.3643C32.0252 41.8152 32.8797 42.4285 33.5927 43.2044C34.3056 43.9802 34.8613 44.8714 35.2597 45.8779C35.6581 46.8844 35.8573 47.9538 35.8573 49.0862V49.5894C35.8573 49.7572 35.8468 49.8725 35.8258 49.9354H21.7976C21.8605 50.8161 22.065 51.6286 22.4109 52.373C22.7569 53.1174 23.2025 53.7622 23.7477 54.3074C24.2929 54.8526 24.9167 55.2772 25.6192 55.5813C26.3217 55.8853 27.0713 56.0374 27.8681 56.0374C28.3924 56.0374 28.9166 55.964 29.4408 55.8172C29.965 55.6704 30.4473 55.4712 30.8877 55.2196C31.328 54.9679 31.7264 54.6587 32.0829 54.2917C32.4394 53.9247 32.712 53.5211 32.9007 53.0807L34.7564 53.584C34.5048 54.1921 34.1483 54.7425 33.687 55.2353C33.2257 55.7281 32.691 56.1579 32.0829 56.5249C31.4748 56.8919 30.8038 57.1749 30.0699 57.3741C29.3359 57.5733 28.5706 57.6729 27.7738 57.6729ZM33.1994 45.8937C33.5453 46.6171 33.7498 47.4191 33.8127 48.2998H21.766C21.8289 47.4401 22.0229 46.6433 22.3479 45.9094C22.6729 45.1755 23.1028 44.5464 23.6375 44.0222C24.1722 43.4979 24.796 43.0891 25.509 42.7955C26.2219 42.5019 26.9768 42.3551 27.7736 42.3551C28.5705 42.3551 29.3201 42.5019 30.0226 42.7955C30.725 43.0891 31.3436 43.4979 31.8783 44.0222C32.413 44.5464 32.8534 45.1702 33.1994 45.8937ZM38.0275 49.1176C38.0275 47.9643 38.2267 46.8739 38.6251 45.8464C39.0235 44.819 39.5845 43.9225 40.3079 43.1572C41.0313 42.3918 41.8963 41.789 42.9028 41.3486C43.9093 40.9083 45.0207 40.6881 46.2369 40.6881C47.7886 40.6881 49.1411 41.0393 50.2944 41.7418C51.4477 42.4442 52.3179 43.3931 52.905 44.5883L50.8291 45.2488C50.3677 44.4101 49.723 43.7548 48.8947 43.283C48.0664 42.8112 47.149 42.5753 46.1425 42.5753C45.3037 42.5753 44.5227 42.743 43.7992 43.0785C43.0758 43.414 42.4467 43.8701 41.912 44.4468C41.3773 45.0234 40.9579 45.7101 40.6539 46.507C40.3498 47.3038 40.1978 48.174 40.1978 49.1176C40.1978 50.0402 40.3551 50.9104 40.6696 51.7282C40.9841 52.546 41.414 53.2537 41.9592 53.8514C42.5044 54.449 43.1387 54.9208 43.8621 55.2668C44.5856 55.6127 45.3562 55.7857 46.174 55.7857C46.6982 55.7857 47.2172 55.7123 47.7309 55.5656C48.2446 55.4188 48.7217 55.2143 49.162 54.9522C49.6024 54.6901 49.9798 54.3913 50.2944 54.0558C50.6089 53.7203 50.8291 53.3638 50.9549 52.9864L53.0623 53.6154C52.8316 54.2026 52.4961 54.7425 52.0558 55.2353C51.6154 55.7281 51.0964 56.1579 50.4988 56.5249C49.9012 56.8919 49.2407 57.1749 48.5172 57.3741C47.7938 57.5733 47.0442 57.6729 46.2683 57.6729C45.0731 57.6729 43.9722 57.4475 42.9657 56.9967C41.9592 56.5459 41.089 55.9273 40.3551 55.1409C39.6212 54.3546 39.0498 53.4477 38.6409 52.4202C38.232 51.3927 38.0275 50.2919 38.0275 49.1176ZM69.1035 57.6729C68.3276 57.6729 67.6095 57.5419 66.9489 57.2798C66.2884 57.0177 65.7118 56.656 65.219 56.1946C64.7262 55.7333 64.3435 55.1934 64.0709 54.5748C63.7983 53.9562 63.662 53.2904 63.662 52.5775C63.662 51.8645 63.8298 51.204 64.1653 50.5959C64.5008 49.9878 64.9726 49.4636 65.5807 49.0232C66.1888 48.5829 66.9122 48.2422 67.751 48.001C68.5897 47.7599 69.5124 47.6393 70.5189 47.6393C71.3577 47.6393 72.2069 47.7127 73.0666 47.8595C73.9264 48.0063 74.6917 48.2159 75.3627 48.4885V47.0102C75.3627 45.5634 74.9538 44.4153 74.136 43.5661C73.3182 42.7168 72.1859 42.2922 70.7391 42.2922C69.9003 42.2922 69.0406 42.46 68.1599 42.7955C67.2792 43.131 66.388 43.6132 65.4863 44.2423L64.7315 42.8269C66.8493 41.401 68.9043 40.6881 70.8963 40.6881C72.9513 40.6881 74.5659 41.2647 75.7402 42.418C76.9144 43.5713 77.5016 45.1649 77.5016 47.1989V54.5905C77.5016 55.1776 77.7637 55.4712 78.2879 55.4712V57.3584C77.9314 57.4213 77.6588 57.4528 77.4701 57.4528C76.9249 57.4528 76.5003 57.3165 76.1962 57.0439C75.8922 56.7713 75.7297 56.3938 75.7087 55.9116L75.6458 54.622C74.8909 55.6075 73.9421 56.3624 72.7993 56.8866C71.6564 57.4108 70.4245 57.6729 69.1035 57.6729ZM72.6735 55.4084C71.7404 55.8278 70.7182 56.0375 69.6068 56.0375C69.0616 56.0375 68.5479 55.9431 68.0656 55.7544C67.5833 55.5657 67.1692 55.3088 66.8232 54.9838C66.4772 54.6588 66.2046 54.2761 66.0054 53.8357C65.8062 53.3954 65.7066 52.9236 65.7066 52.4203C65.7066 51.3928 66.1784 50.5646 67.122 49.9355C68.0656 49.3064 69.2923 48.9919 70.8021 48.9919C71.5989 48.9919 72.38 49.0653 73.1453 49.2121C73.9107 49.3589 74.6499 49.5685 75.3628 49.8411V52.5147C75.3628 52.7034 75.3156 52.9078 75.2213 53.128C75.1269 53.3482 74.9854 53.5526 74.7966 53.7414C74.3144 54.4333 73.6067 54.989 72.6735 55.4084ZM106.502 57.3584H104.363V48.2055C104.363 46.2973 104.059 44.8924 103.451 43.9907C102.842 43.089 101.941 42.6382 100.746 42.6382C100.117 42.6382 99.5241 42.7535 98.9685 42.9842C98.4128 43.2148 97.899 43.5399 97.4272 43.9592C96.9554 44.3786 96.5413 44.8766 96.1848 45.4533C95.8284 46.0299 95.5558 46.6642 95.367 47.3562V57.3584H93.2282V48.2055C93.2282 46.2553 92.9346 44.8399 92.3475 43.9592C91.7604 43.0785 90.8587 42.6382 89.6425 42.6382C88.4053 42.6382 87.3045 43.0681 86.3399 43.9278C85.3753 44.7875 84.6834 45.9198 84.264 47.3248V57.3584H82.1251V40.9712H84.0752V44.6827C84.7463 43.4245 85.627 42.4442 86.7173 41.7418C87.8077 41.0393 89.0134 40.6881 90.3345 40.6881C91.7184 40.6881 92.8245 41.076 93.6528 41.8519C94.4811 42.6277 94.9896 43.6447 95.1783 44.9028C96.7091 42.093 98.8164 40.6881 101.5 40.6881C102.423 40.6881 103.204 40.8558 103.844 41.1913C104.483 41.5268 104.997 42.0039 105.385 42.6225C105.773 43.2411 106.056 43.9854 106.234 44.8557C106.412 45.7259 106.502 46.6957 106.502 47.7651V57.3584ZM112.997 57.2798C113.657 57.5419 114.375 57.6729 115.151 57.6729C116.472 57.6729 117.704 57.4108 118.847 56.8866C119.99 56.3624 120.939 55.6075 121.694 54.622L121.757 55.9116C121.778 56.3938 121.94 56.7713 122.244 57.0439C122.548 57.3165 122.973 57.4528 123.518 57.4528C123.707 57.4528 123.979 57.4213 124.336 57.3584V55.4712C123.812 55.4712 123.549 55.1776 123.549 54.5905V47.1989C123.549 45.1649 122.962 43.5713 121.788 42.418C120.614 41.2647 118.999 40.6881 116.944 40.6881C114.952 40.6881 112.897 41.401 110.779 42.8269L111.534 44.2423C112.436 43.6132 113.327 43.131 114.208 42.7955C115.088 42.46 115.948 42.2922 116.787 42.2922C118.234 42.2922 119.366 42.7168 120.184 43.5661C121.002 44.4153 121.411 45.5634 121.411 47.0102V48.4885C120.74 48.2159 119.974 48.0063 119.114 47.8595C118.255 47.7127 117.406 47.6393 116.567 47.6393C115.56 47.6393 114.638 47.7599 113.799 48.001C112.96 48.2422 112.237 48.5829 111.629 49.0232C111.02 49.4636 110.549 49.9878 110.213 50.5959C109.878 51.204 109.71 51.8645 109.71 52.5775C109.71 53.2904 109.846 53.9562 110.119 54.5748C110.391 55.1934 110.774 55.7333 111.267 56.1946C111.76 56.656 112.336 57.0177 112.997 57.2798ZM115.654 56.0375C116.766 56.0375 117.788 55.8278 118.721 55.4084C119.654 54.989 120.362 54.4333 120.844 53.7414C121.033 53.5526 121.175 53.3482 121.269 53.128C121.363 52.9078 121.41 52.7034 121.41 52.5147V49.8411C120.698 49.5685 119.958 49.3589 119.193 49.2121C118.428 49.0653 117.647 48.9919 116.85 48.9919C115.34 48.9919 114.113 49.3064 113.17 49.9355C112.226 50.5646 111.754 51.3928 111.754 52.4203C111.754 52.9236 111.854 53.3954 112.053 53.8357C112.252 54.2761 112.525 54.6588 112.871 54.9838C113.217 55.3088 113.631 55.5657 114.113 55.7544C114.596 55.9431 115.109 56.0375 115.654 56.0375Z" fill="#3F48AD"/>
<path fill-rule="evenodd" clip-rule="evenodd" d="M37.1583 0.882225H43.3696L51.9537 25.6575H45.0445L43.544 20.8071H36.9489L35.4834 25.6575H28.5393L37.1583 0.882225ZM42.4621 16.2707L40.2638 8.59383L37.9607 16.2707H42.4621ZM54.0126 25.6575V0.882225H65.3883C66.598 0.882225 67.7146 1.1323 68.7382 1.63246C69.7617 2.13262 70.6399 2.78398 71.3727 3.58657C72.1055 4.38915 72.6813 5.30804 73.1 6.34325C73.5187 7.37847 73.7281 8.41949 73.7281 9.46633C73.7281 10.9087 73.4141 12.2521 72.786 13.4967C72.1578 14.7413 71.2855 15.759 70.1689 16.55L75.4031 25.6575H67.7262L63.3644 18.0504H60.8171V25.6575H54.0126ZM60.8169 12.1182H65.1089C65.5277 12.1182 65.9173 11.8856 66.2779 11.4203C66.6385 10.9551 66.8188 10.3037 66.8188 9.46623C66.8188 8.60549 66.6094 7.94831 66.1907 7.49468C65.7719 7.04104 65.3532 6.81423 64.9345 6.81423H60.8169V12.1182ZM92.5712 8.97777C91.8733 8.55903 91.1522 8.18683 90.4077 7.86114C89.7796 7.58198 89.0759 7.32027 88.2966 7.07601C87.5173 6.83174 86.7554 6.70961 86.011 6.70961C85.4062 6.70961 84.9235 6.80266 84.5629 6.98877C84.2023 7.17488 84.022 7.48893 84.022 7.93093C84.022 8.25661 84.1267 8.52414 84.3361 8.73351C84.5454 8.94288 84.8478 9.1348 85.2433 9.30927C85.6388 9.48375 86.1215 9.6524 86.6915 9.81525C87.2614 9.97809 87.907 10.1758 88.6281 10.4085C89.768 10.7574 90.7974 11.1412 91.7163 11.56C92.6352 11.9787 93.4203 12.4731 94.0717 13.043C94.7231 13.613 95.2232 14.305 95.5722 15.1192C95.9211 15.9335 96.0956 16.9221 96.0956 18.0853C96.0956 19.5742 95.8223 20.8245 95.2756 21.8365C94.7289 22.8484 94.0077 23.6568 93.1121 24.2617C92.2165 24.8665 91.2045 25.3027 90.0762 25.5702C88.948 25.8378 87.8139 25.9715 86.674 25.9715C85.7667 25.9715 84.8362 25.9017 83.8824 25.7621C82.9286 25.6226 81.9807 25.4248 81.0385 25.1689C80.0963 24.913 79.1891 24.6106 78.3167 24.2617C77.4443 23.9127 76.636 23.5173 75.8915 23.0753L78.8227 17.1082C79.6369 17.62 80.486 18.0737 81.37 18.4691C82.1144 18.8181 82.9577 19.1321 83.8999 19.4113C84.842 19.6905 85.8016 19.83 86.7787 19.83C87.5231 19.83 88.0407 19.7312 88.3315 19.5334C88.6223 19.3357 88.7677 19.074 88.7677 18.7483C88.7677 18.3994 88.6223 18.1027 88.3315 17.8585C88.0407 17.6142 87.6394 17.399 87.1276 17.2129C86.6158 17.0268 86.0285 16.8407 85.3655 16.6546C84.7025 16.4685 83.9987 16.2475 83.2543 15.9916C82.1609 15.6194 81.2188 15.2181 80.4278 14.7877C79.6369 14.3574 78.9855 13.8689 78.4737 13.3222C77.9619 12.7755 77.5839 12.1532 77.3397 11.4553C77.0954 10.7574 76.9733 9.95483 76.9733 9.04756C76.9733 7.67503 77.2233 6.46535 77.7235 5.41851C78.2237 4.37166 78.9041 3.4993 79.7648 2.8014C80.6256 2.1035 81.6084 1.57427 82.7135 1.21369C83.8185 0.853109 84.9874 0.672821 86.2204 0.672821C87.1276 0.672821 88.0116 0.760057 88.8724 0.934532C89.7331 1.10901 90.5648 1.33 91.3674 1.59753C92.1699 1.86506 92.9202 2.15585 93.6181 2.4699C94.316 2.78395 94.9441 3.08056 95.5024 3.35972L92.5712 8.97777Z" fill="url(#paint0_linear)"/>
<defs>
<linearGradient id="paint0_linear" x1="171.465" y1="15.5558" x2="152.766" y2="-52.8323" gradientUnits="userSpaceOnUse">
<stop stop-color="#7F00FF"/>
<stop offset="1" stop-color="#E100FF"/>
</linearGradient>
</defs>
</svg>
