<svg width="18" height="18" viewBox="0 0 18 18" fill="none" xmlns="http://www.w3.org/2000/svg">
<path d="M8.77393 17.3633C13.5112 17.3633 17.4224 13.4521 17.4224 8.70605C17.4224 3.96875 13.5024 0.0576172 8.76514 0.0576172C4.02783 0.0576172 0.116699 3.96875 0.116699 8.70605C0.116699 13.4521 4.02783 17.3633 8.77393 17.3633ZM8.77393 15.5088C5.00342 15.5088 1.97998 12.4766 1.97998 8.70605C1.97998 4.93555 4.99463 1.91211 8.76514 1.91211C12.5356 1.91211 15.5591 4.93555 15.5679 8.70605C15.5767 12.4766 12.5356 15.5088 8.77393 15.5088ZM6.09326 12.1865C6.32178 12.1865 6.52393 12.1074 6.67334 11.9492L8.76514 9.85742L10.8657 11.9492C11.0239 12.1074 11.2085 12.1865 11.4458 12.1865C11.894 12.1865 12.2456 11.835 12.2456 11.3867C12.2456 11.1758 12.1577 10.9824 11.9995 10.833L9.89893 8.72363L12.0083 6.60547C12.1665 6.44727 12.2544 6.2627 12.2544 6.05176C12.2544 5.6123 11.9028 5.26074 11.4546 5.26074C11.2261 5.26074 11.0503 5.33105 10.8833 5.49805L8.76514 7.59863L6.66455 5.50684C6.50635 5.34863 6.32178 5.26953 6.09326 5.26953C5.64502 5.26953 5.29346 5.6123 5.29346 6.06055C5.29346 6.27148 5.38135 6.46484 5.53955 6.61426L7.64014 8.72363L5.53955 10.833C5.38135 10.9824 5.29346 11.1758 5.29346 11.3867C5.29346 11.835 5.64502 12.1865 6.09326 12.1865Z" fill="#80868B"/>
</svg>
